<?xml version="1.0" encoding="utf-8"?>
<!-- Generator: Adobe Illustrator 16.0.0, SVG Export Plug-In . SVG Version: 6.00 Build 0)  -->
<!DOCTYPE svg PUBLIC "-//W3C//DTD SVG 1.1//EN" "http://www.w3.org/Graphics/SVG/1.1/DTD/svg11.dtd">
<svg version="1.1" id="Layer_1" xmlns="http://www.w3.org/2000/svg" xmlns:xlink="http://www.w3.org/1999/xlink" x="0px" y="0px"
	 width="96px" height="37px" viewBox="0 0 96 37" enable-background="new 0 0 96 37" xml:space="preserve">
<g>
	<path fill="#1E68A3" d="M21.477,28.181H3.288c-0.523,0-0.948-0.424-0.948-0.948V9.411c0-0.523,0.425-0.948,0.948-0.948h9.094
		c0.523,0,0.948,0.424,0.948,0.948v2.75c0,0.523-0.424,0.948-0.948,0.948c-0.524,0-0.948-0.424-0.948-0.948v-1.801H4.236v15.926
		h16.293V10.359h-2.325c-0.523,0-0.948-0.425-0.948-0.948s0.425-0.948,0.948-0.948h3.272c0.524,0,0.948,0.424,0.948,0.948v17.822
		C22.425,27.757,22.001,28.181,21.477,28.181z"/>
</g>
<g id="svg1_copy_3_4_" sodipodi:docname="heart_jon_phillips_01.svg" sodipodi:version="0.32" inkscape:output_extension="org.inkscape.output.svg.inkscape" inkscape:version="0.46" sodipodi:docbase="C:\Documents and Settings\Jon Phillips\My Documents\projects\clipart-project\submissions" xmlns:sodipodi="http://sodipodi.sourceforge.net/DTD/sodipodi-0.dtd" xmlns:rdf="http://www.w3.org/1999/02/22-rdf-syntax-ns#" xmlns:inkscape="http://www.inkscape.org/namespaces/inkscape" xmlns:svg="http://www.w3.org/2000/svg" xmlns:cc="http://creativecommons.org/ns#" xmlns:dc="http://purl.org/dc/elements/1.1/">
	<defs>
		
		
			<inkscape:perspective  inkscape:persp3d-origin="372.04724 : 350.78739 : 1" id="perspective9" inkscape:vp_x="0 : 526.18109 : 1" inkscape:vp_y="0 : 1000 : 0" inkscape:vp_z="744.09448 : 526.18109 : 1" sodipodi:type="inkscape:persp3d">
			</inkscape:perspective>
	</defs>
	
		<sodipodi:namedview  inkscape:document-units="px" inkscape:current-layer="layer1" inkscape:window-width="866" inkscape:pageopacity="0.0" inkscape:window-y="116" inkscape:window-x="88" inkscape:window-height="667" inkscape:guide-bbox="true" inkscape:pageshadow="2" id="base" bordercolor="#666666" borderopacity="1.0" inkscape:cx="549.40674" showguides="true" inkscape:cy="596.00159" inkscape:zoom="0.35" showgrid="false" pagecolor="#ffffff">
		</sodipodi:namedview>
	<g id="layer1_5_" transform="translate(-134.06575,-225.79588)" inkscape:groupmode="layer" inkscape:label="Layer 1">
		<g id="path7_5_">
			<path sodipodi:nodetypes="ccccccc" fill="#F1595B" d="M144.67,240.832c-1.085,0-1.966,0.88-1.966,1.965
				c0,2.207,2.226,2.786,3.744,4.967c1.436-2.167,3.744-2.832,3.744-4.967c0-1.085-0.88-1.965-1.966-1.965
				c-0.787,0-1.464,0.463-1.778,1.133C146.135,241.295,145.457,240.832,144.67,240.832z"/>
			<path fill="#F1595B" d="M146.448,247.884c-0.039,0-0.076-0.02-0.098-0.051c-0.573-0.825-1.264-1.43-1.873-1.964
				c-1.015-0.89-1.892-1.657-1.892-3.072c0-1.149,0.935-2.084,2.084-2.084c0.727,0,1.403,0.386,1.778,1.001
				c0.375-0.615,1.051-1.001,1.778-1.001c1.149,0,2.084,0.935,2.084,2.084c0,1.35-0.872,2.123-1.881,3.017
				c-0.622,0.552-1.327,1.178-1.883,2.016C146.525,247.863,146.489,247.883,146.448,247.884L146.448,247.884z M144.67,240.95
				c-1.019,0-1.847,0.829-1.847,1.847c0,1.307,0.799,2.007,1.811,2.894c0.585,0.513,1.243,1.089,1.812,1.866
				c0.556-0.793,1.229-1.39,1.827-1.92c0.966-0.857,1.801-1.597,1.801-2.84c0-1.019-0.829-1.847-1.847-1.847
				c-0.711,0-1.367,0.418-1.671,1.065c-0.02,0.041-0.062,0.068-0.107,0.068l0,0c-0.046,0-0.088-0.027-0.107-0.068
				C146.037,241.369,145.382,240.95,144.67,240.95z"/>
		</g>
	</g>
</g>
<path fill="#1E68A3" d="M34.403,22.378c0,0.585-0.474,1.059-1.059,1.059c-0.584,0-1.058-0.474-1.058-1.059V22.28
	c-0.515,0.696-1.225,1.212-2.325,1.212c-1.74,0-3.397-1.365-3.397-3.856v-0.028c0-2.492,1.629-3.857,3.397-3.857
	c1.128,0,1.824,0.515,2.325,1.114v-2.701c0-0.585,0.474-1.058,1.058-1.058c0.585,0,1.059,0.473,1.059,1.058V22.378z M28.68,19.607
	v0.028c0,1.238,0.835,2.061,1.824,2.061c0.989,0,1.81-0.822,1.81-2.061v-0.028c0-1.239-0.821-2.061-1.81-2.061
	C29.516,17.547,28.68,18.354,28.68,19.607z"/>
<path fill="#1E68A3" d="M35.935,19.663v-0.027c0-2.145,1.727-3.885,4.052-3.885c2.311,0,4.023,1.713,4.023,3.857v0.028
	c0,2.144-1.727,3.884-4.051,3.884C37.647,23.52,35.935,21.808,35.935,19.663z M41.922,19.663v-0.027c0-1.1-0.793-2.061-1.963-2.061
	c-1.211,0-1.936,0.933-1.936,2.033v0.028c0,1.1,0.793,2.061,1.963,2.061C41.198,21.696,41.922,20.764,41.922,19.663z"/>
<path fill="#1E68A3" d="M45.543,16.865c0-0.585,0.473-1.058,1.058-1.058c0.584,0,1.058,0.473,1.058,1.058v0.083
	c0.487-0.626,1.114-1.198,2.186-1.198c1.602,0,2.534,1.058,2.534,2.771v3.856c0,0.585-0.474,1.059-1.059,1.059
	c-0.584,0-1.058-0.474-1.058-1.059v-3.188c0-1.002-0.474-1.518-1.281-1.518c-0.808,0-1.323,0.516-1.323,1.518v3.188
	c0,0.585-0.474,1.059-1.058,1.059c-0.585,0-1.058-0.474-1.058-1.059V16.865z"/>
<path fill="#1E68A3" d="M53.855,19.663v-0.027c0-2.145,1.727-3.885,4.052-3.885c2.312,0,4.023,1.713,4.023,3.857v0.028
	c0,2.144-1.726,3.884-4.051,3.884C55.568,23.52,53.855,21.808,53.855,19.663z M59.843,19.663v-0.027c0-1.1-0.794-2.061-1.963-2.061
	c-1.212,0-1.936,0.933-1.936,2.033v0.028c0,1.1,0.793,2.061,1.963,2.061C59.119,21.696,59.843,20.764,59.843,19.663z"/>
<path fill="#1E68A3" d="M63.464,16.865c0-0.585,0.473-1.058,1.058-1.058s1.059,0.473,1.059,1.058v0.334
	c0.306-0.724,0.808-1.392,1.434-1.392c0.654,0,1.03,0.431,1.03,1.03c0,0.557-0.362,0.891-0.793,0.988
	c-1.072,0.25-1.671,1.072-1.671,2.576v1.977c0,0.585-0.474,1.059-1.059,1.059s-1.058-0.474-1.058-1.059V16.865z"/>
<path fill="#1E68A3" d="M69.405,14.187c0-0.584,0.473-1.058,1.058-1.058s1.059,0.474,1.059,1.058v2.799
	c0.515-0.696,1.225-1.211,2.324-1.211c1.741,0,3.397,1.365,3.397,3.857v0.027c0,2.493-1.629,3.857-3.397,3.857
	c-1.127,0-1.823-0.516-2.324-1.114v0.014c0,0.571-0.474,1.045-1.059,1.045s-1.058-0.474-1.058-1.059V14.187z M75.127,19.658v-0.027
	c0-1.239-0.835-2.061-1.824-2.061c-0.988,0-1.81,0.821-1.81,2.061v0.027c0,1.239,0.821,2.062,1.81,2.062
	C74.292,21.72,75.127,20.912,75.127,19.658z"/>
<path fill="#1E68A3" d="M78.441,19.687v-0.028c0-2.144,1.727-3.884,4.052-3.884c2.312,0,4.024,1.713,4.024,3.857v0.027
	c0,2.145-1.727,3.885-4.052,3.885C80.154,23.543,78.441,21.83,78.441,19.687z M84.429,19.687v-0.028c0-1.1-0.793-2.061-1.963-2.061
	c-1.212,0-1.936,0.933-1.936,2.033v0.027c0,1.101,0.794,2.062,1.963,2.062C83.705,21.72,84.429,20.786,84.429,19.687z"/>
<path fill="#1E68A3" d="M87.743,21.845l1.907-2.256l-1.74-2.005c-0.236-0.278-0.348-0.529-0.348-0.807
	c0-0.599,0.445-0.975,0.975-0.975c0.417,0,0.71,0.195,0.988,0.543l1.378,1.838l1.406-1.838c0.251-0.306,0.543-0.543,0.919-0.543
	c0.558,0,0.989,0.39,0.989,0.919c0,0.292-0.126,0.515-0.293,0.724l-1.81,2.117l1.865,2.144c0.237,0.278,0.349,0.529,0.349,0.808
	c0,0.599-0.445,0.975-0.975,0.975c-0.418,0-0.71-0.195-0.989-0.543l-1.503-1.977l-1.504,1.977c-0.251,0.307-0.543,0.543-0.919,0.543
	c-0.557,0-0.989-0.39-0.989-0.919C87.45,22.276,87.562,22.054,87.743,21.845z"/>
</svg>
